<svg width="681" height="176" viewBox="0 0 681 176" fill="none" xmlns="http://www.w3.org/2000/svg">
<path d="M15.2095 174.174H0.549988V69.3594H40.2168C47.1063 69.3594 52.4618 69.6951 56.1108 70.3573C61.2484 71.2102 65.6326 72.8704 69.1273 75.2837C72.622 77.7061 75.4812 81.1355 77.6053 85.4903C79.7293 89.836 80.8095 94.6717 80.8095 99.8611C80.8095 108.77 77.932 116.428 72.2498 122.597C66.5585 128.784 56.1925 131.923 41.4241 131.923H15.2095V174.165V174.174ZM15.2095 118.759H41.6328C50.365 118.759 56.6372 117.126 60.2681 113.914C63.8807 110.712 65.7143 106.13 65.7143 100.288C65.7143 96.0597 64.6341 92.3854 62.501 89.3824C60.377 86.3885 57.5359 84.3834 54.0593 83.4218C51.7901 82.823 47.5148 82.5145 41.3424 82.5145H15.2004V118.75L15.2095 118.759Z" fill="#1E2E4D"/>
<path d="M140.491 175.943C130.661 175.943 121.756 173.539 114.013 168.785C106.271 164.04 100.316 157.462 96.3312 149.243C92.3464 141.041 90.3313 132.25 90.3313 123.105C90.3313 105.822 95.0514 92.086 104.355 82.2877C113.668 72.4803 125.85 67.5086 140.564 67.5086C150.195 67.5086 159.008 69.8402 166.751 74.4491C174.494 79.0579 180.485 85.572 184.551 93.8098C188.609 102.029 190.66 111.483 190.66 121.898C190.66 132.313 188.5 142.048 184.225 150.386C179.949 158.751 173.804 165.165 165.952 169.465C158.119 173.757 149.559 175.934 140.491 175.934V175.943ZM140.636 80.2555C131.06 80.2555 122.709 83.5851 115.811 90.1626C108.912 96.7311 105.417 107.89 105.417 123.323C105.417 135.67 108.776 145.523 115.402 152.609C122.019 159.685 130.434 163.278 140.419 163.278C150.403 163.278 159.081 159.658 165.653 152.509C172.234 145.351 175.565 135.035 175.565 121.844C175.565 113.488 174.131 106.103 171.317 99.8793C168.503 93.6828 164.337 88.8108 158.936 85.3996C153.526 81.9883 147.372 80.2555 140.636 80.2555Z" fill="#1E2E4D"/>
<path d="M244.669 175.943C235.247 175.943 227.232 174.546 220.841 171.797C214.433 169.039 209.332 164.82 205.683 159.259C202.034 153.706 200.091 147.347 199.901 140.343V139.916L213.734 138.71L213.789 139.145C214.388 144.244 215.813 148.481 218 151.738C220.188 154.977 223.637 157.644 228.266 159.658C232.914 161.681 238.224 162.706 244.042 162.706C249.207 162.706 253.828 161.926 257.776 160.402C261.697 158.878 264.647 156.773 266.545 154.142C268.442 151.52 269.404 148.617 269.404 145.514C269.404 142.411 268.478 139.59 266.663 137.249C264.829 134.899 261.752 132.885 257.495 131.261C254.735 130.191 248.527 128.485 239.041 126.208C229.501 123.921 222.711 121.726 218.863 119.685C213.852 117.063 210.058 113.751 207.589 109.85C205.12 105.949 203.867 101.512 203.867 96.6768C203.867 91.3693 205.392 86.3341 208.406 81.7253C211.419 77.1074 215.876 73.56 221.658 71.174C227.404 68.797 233.885 67.5994 240.911 67.5994C248.645 67.5994 255.561 68.8605 261.48 71.3554C267.425 73.8594 272.054 77.5973 275.259 82.4783C278.454 87.3412 280.196 92.9298 280.442 99.081L280.46 99.5164L266.39 100.578L266.345 100.142C265.655 93.7282 263.286 88.82 259.31 85.5629C255.325 82.2968 249.325 80.6366 241.483 80.6366C233.64 80.6366 227.277 82.1426 223.574 85.1093C219.897 88.0488 218.037 91.6415 218.037 95.7786C218.037 99.3622 219.344 102.347 221.931 104.651C224.509 107.001 231.425 109.46 242.472 111.955C253.628 114.477 261.398 116.718 265.573 118.614C271.673 121.427 276.248 125.046 279.162 129.374C282.084 133.711 283.564 138.764 283.564 144.407C283.564 150.05 281.939 155.34 278.744 160.284C275.54 165.229 270.883 169.121 264.902 171.861C258.938 174.591 252.13 175.979 244.678 175.979L244.669 175.943Z" fill="#1E2E4D"/>
<path d="M338.635 175.943C329.213 175.943 321.198 174.546 314.807 171.797C308.399 169.039 303.298 164.82 299.649 159.259C296 153.706 294.057 147.347 293.866 140.343V139.916L307.7 138.71L307.754 139.145C308.353 144.244 309.779 148.481 311.966 151.738C314.154 154.977 317.603 157.644 322.232 159.658C326.88 161.681 332.19 162.706 338.008 162.706C343.173 162.706 347.793 161.926 351.742 160.402C355.663 158.878 358.613 156.773 360.51 154.142C362.407 151.511 363.37 148.608 363.37 145.514C363.37 142.42 362.444 139.599 360.628 137.249C358.795 134.899 355.718 132.885 351.461 131.261C348.701 130.191 342.492 128.485 333.007 126.208C323.467 123.921 316.677 121.726 312.828 119.685C307.818 117.063 304.024 113.751 301.555 109.85C299.086 105.949 297.833 101.512 297.833 96.6768C297.833 91.3693 299.358 86.3341 302.372 81.7253C305.385 77.1074 309.842 73.56 315.624 71.174C321.37 68.797 327.851 67.5994 334.877 67.5994C342.61 67.5994 349.527 68.8605 355.436 71.3554C361.382 73.8594 366.011 77.5973 369.215 82.4783C372.41 87.3412 374.153 92.9298 374.398 99.081L374.416 99.5164L360.347 100.578L360.302 100.142C359.612 93.7282 357.243 88.82 353.267 85.5629C349.282 82.2968 343.282 80.6366 335.439 80.6366C327.597 80.6366 321.234 82.1426 317.53 85.1093C313.854 88.0488 311.993 91.6415 311.993 95.7786C311.993 99.3622 313.3 102.347 315.887 104.651C318.465 107.001 325.382 109.46 336.429 111.955C347.585 114.477 355.355 116.718 359.53 118.614C365.63 121.427 370.205 125.046 373.118 129.374C376.041 133.711 377.521 138.764 377.521 144.407C377.521 150.05 375.896 155.34 372.701 160.284C369.497 165.229 364.84 169.121 358.858 171.861C352.895 174.591 346.087 175.979 338.635 175.979V175.943Z" fill="#1E2E4D"/>
<path d="M409.508 174.174H394.84V69.3594H409.508V174.174Z" fill="#1E2E4D"/>
<path d="M469.481 174.174H429.387V69.3594H468.845C476.815 69.3594 483.305 70.4299 488.143 72.5529C492.999 74.6849 496.866 78.0145 499.626 82.4419C502.376 86.8693 503.774 91.5598 503.774 96.3954C503.774 100.904 502.53 105.205 500.089 109.179C497.81 112.88 494.415 115.956 489.977 118.333C495.822 120.238 500.415 123.35 503.647 127.587C507.069 132.087 508.812 137.476 508.812 143.6C508.812 148.517 507.759 153.144 505.68 157.372C503.601 161.599 500.987 164.911 497.919 167.206C494.86 169.502 490.975 171.253 486.373 172.423C481.798 173.584 476.116 174.174 469.49 174.174H469.481ZM444.047 161.001H469.481C473.874 161.001 476.996 160.837 478.757 160.511C481.862 159.957 484.476 159.023 486.546 157.735C488.597 156.464 490.303 154.577 491.638 152.128C492.963 149.678 493.644 146.802 493.644 143.591C493.644 139.825 492.673 136.514 490.748 133.747C488.833 130.989 486.128 129.02 482.715 127.895C479.257 126.761 474.183 126.18 467.647 126.18H444.065V161.001H444.047ZM444.047 113.016H466.077C472.104 113.016 476.479 112.617 479.066 111.828C482.452 110.821 485.03 109.133 486.736 106.82C488.443 104.497 489.305 101.54 489.305 98.0194C489.305 94.4993 488.497 91.6868 486.891 89.1556C485.302 86.6425 482.996 84.8915 480.046 83.957C477.024 83.0044 471.75 82.5236 464.37 82.5236H444.047V113.016Z" fill="#1E2E4D"/>
<path d="M589.217 174.174H523.353V69.3594H538.022V161.01H589.226V174.183L589.217 174.174Z" fill="#1E2E4D"/>
<path d="M680.55 174.174H602.061V69.3594H678.136V82.5326H616.72V113.452H674.232V126.552H616.72V161.01H680.541V174.183L680.55 174.174Z" fill="#1E2E4D"/>
<path d="M382.622 47.4039C381.742 47.4039 380.898 47.0864 380.099 46.3515C376.749 43.2578 381.088 38.5673 386.099 33.1419C390.919 27.9252 394.731 23.8063 398.08 26.9001C399.633 28.3335 399.696 30.2569 398.289 32.779C397.064 34.9746 394.849 37.4423 392.489 39.9917C389.112 43.6479 385.645 47.3948 382.613 47.3948L382.622 47.4039Z" fill="#1E2E4D"/>
<path d="M395.775 22.2187C392.652 22.2187 388.922 18.3084 385.545 14.7701C381.106 10.116 376.522 5.30753 379.981 2.00514C383.285 -1.14302 387.687 3.47489 392.789 8.81859C395.248 11.3952 397.382 13.627 398.543 15.6048C399.887 17.8911 399.796 19.7056 398.271 21.1572C397.5 21.8921 396.664 22.2096 395.775 22.2096V22.2187Z" fill="#1E2E4D"/>
<path d="M421 47.4039C420.02 47.4039 418.94 47.0138 417.75 46.2336C415.717 44.8999 413.457 42.532 411.124 40.0098C408.764 37.4605 406.549 34.9927 405.324 32.7972C403.917 30.275 403.981 28.3517 405.533 26.9182C407.076 25.4848 408.9 25.512 411.097 26.9908C413.003 28.2791 415.091 30.5381 417.514 33.151C422.534 38.5764 426.864 43.2578 423.514 46.3606C422.761 47.0592 421.926 47.4039 421 47.4039Z" fill="#1E2E4D"/>
<path d="M407.856 22.2187C406.922 22.2187 406.096 21.8648 405.36 21.1663C403.835 19.7147 403.745 17.8911 405.088 15.6139C406.25 13.6361 408.374 11.4042 410.843 8.82765C415.944 3.48395 420.356 -1.13395 423.651 2.01421C425.185 3.47488 425.257 5.35289 423.887 7.77524C422.688 9.88914 420.455 12.2933 418.086 14.7792C415.69 17.2923 413.357 19.6602 411.242 21.0211C409.98 21.8285 408.855 22.2368 407.856 22.2368V22.2187Z" fill="#1E2E4D"/>
</svg>
