<svg width="680" height="175" viewBox="0 0 680 175" fill="none" xmlns="http://www.w3.org/2000/svg">
<path d="M14.6595 173.195H0V68.38H39.6668C46.5563 68.38 51.9118 68.7157 55.5608 69.378C60.6984 70.2308 65.0826 71.891 68.5773 74.3043C72.072 76.7267 74.9312 80.1561 77.0553 84.5109C79.1793 88.8566 80.2595 93.6923 80.2595 98.8817C80.2595 107.791 77.3821 115.448 71.6998 121.617C66.0085 127.805 55.6425 130.944 40.8741 130.944H14.6595V173.186V173.195ZM14.6595 117.78H41.0828C49.815 117.78 56.0872 116.147 59.7181 112.935C63.3307 109.732 65.1643 105.151 65.1643 99.3081C65.1643 95.0804 64.0841 91.406 61.951 88.403C59.827 85.4091 56.9859 83.4041 53.5094 82.4424C51.2401 81.8436 46.9648 81.5351 40.7924 81.5351H14.6504V117.771L14.6595 117.78Z" fill="white"/>
<path d="M139.941 174.964C130.111 174.964 121.206 172.56 113.463 167.806C105.721 163.061 99.7662 156.483 95.7813 148.263C91.7965 140.062 89.7814 131.271 89.7814 122.125C89.7814 104.842 94.5015 91.1066 103.805 81.3083C113.119 71.5009 125.3 66.5292 140.014 66.5292C149.645 66.5292 158.459 68.8608 166.201 73.4697C173.944 78.0785 179.935 84.5925 184.001 92.8304C188.059 101.05 190.11 110.504 190.11 120.919C190.11 131.334 187.95 141.069 183.675 149.406C179.399 157.771 173.254 164.186 165.402 168.486C157.569 172.777 149.009 174.955 139.941 174.955V174.964ZM140.087 79.2761C130.51 79.2761 122.159 82.6057 115.261 89.1832C108.362 95.7517 104.867 106.911 104.867 122.343C104.867 134.691 108.226 144.544 114.852 151.629C121.469 158.706 129.884 162.299 139.869 162.299C149.853 162.299 158.531 158.679 165.103 151.529C171.684 144.371 175.015 134.056 175.015 120.864C175.015 112.509 173.581 105.124 170.767 98.8999C167.953 92.7034 163.787 87.8314 158.386 84.4202C152.976 81.0089 146.822 79.2761 140.087 79.2761Z" fill="white"/>
<path d="M244.119 174.964C234.697 174.964 226.682 173.567 220.292 170.818C213.883 168.06 208.782 163.841 205.133 158.279C201.484 152.727 199.541 146.367 199.351 139.363V138.937L213.184 137.73L213.239 138.166C213.838 143.264 215.263 147.501 217.45 150.758C219.638 153.997 223.087 156.664 227.717 158.679C232.364 160.702 237.674 161.727 243.493 161.727C248.657 161.727 253.278 160.947 257.226 159.423C261.147 157.898 264.097 155.794 265.995 153.163C267.892 150.541 268.854 147.637 268.854 144.535C268.854 141.432 267.928 138.61 266.113 136.269C264.279 133.92 261.202 131.906 256.945 130.282C254.185 129.211 247.977 127.505 238.491 125.228C228.951 122.942 222.161 120.746 218.313 118.705C213.302 116.083 209.508 112.772 207.039 108.871C204.57 104.969 203.317 100.533 203.317 95.6973C203.317 90.3899 204.842 85.3546 207.856 80.7458C210.87 76.1279 215.326 72.5805 221.108 70.1945C226.854 67.8175 233.335 66.6199 240.361 66.6199C248.095 66.6199 255.011 67.881 260.93 70.3759C266.875 72.8799 271.504 76.6178 274.709 81.4988C277.904 86.3617 279.647 91.9503 279.892 98.1015L279.91 98.537L265.84 99.5985L265.795 99.163C265.105 92.7487 262.736 87.8405 258.76 84.5835C254.775 81.3174 248.775 79.6571 240.933 79.6571C233.09 79.6571 226.727 81.1631 223.024 84.1298C219.348 87.0693 217.487 90.662 217.487 94.7991C217.487 98.3827 218.794 101.368 221.381 103.672C223.959 106.022 230.875 108.48 241.922 110.975C253.078 113.498 260.848 115.738 265.023 117.635C271.123 120.447 275.698 124.067 278.612 128.395C281.535 132.731 283.014 137.785 283.014 143.428C283.014 149.071 281.389 154.36 278.194 159.305C274.99 164.249 270.333 168.141 264.352 170.881C258.388 173.612 251.58 175 244.128 175L244.119 174.964Z" fill="white"/>
<path d="M338.085 174.964C328.663 174.964 320.648 173.567 314.257 170.818C307.849 168.06 302.748 163.841 299.099 158.279C295.45 152.727 293.507 146.367 293.317 139.363V138.937L307.15 137.73L307.205 138.166C307.804 143.264 309.229 147.501 311.416 150.758C313.604 153.997 317.053 156.664 321.683 158.679C326.33 160.702 331.64 161.727 337.458 161.727C342.623 161.727 347.244 160.947 351.192 159.423C355.113 157.898 358.063 155.794 359.961 153.163C361.858 150.531 362.82 147.628 362.82 144.535C362.82 141.441 361.894 138.619 360.079 136.269C358.245 133.92 355.168 131.906 350.911 130.282C348.151 129.211 341.943 127.505 332.457 125.228C322.917 122.942 316.127 120.746 312.279 118.705C307.268 116.083 303.474 112.772 301.005 108.871C298.536 104.969 297.283 100.533 297.283 95.6973C297.283 90.3899 298.808 85.3546 301.822 80.7458C304.835 76.1279 309.292 72.5805 315.074 70.1945C320.82 67.8175 327.301 66.6199 334.327 66.6199C342.061 66.6199 348.977 67.881 354.886 70.3759C360.832 72.8799 365.461 76.6178 368.665 81.4988C371.861 86.3617 373.603 91.9503 373.848 98.1015L373.867 98.537L359.797 99.5985L359.752 99.163C359.062 92.7487 356.693 87.8405 352.717 84.5835C348.732 81.3174 342.732 79.6571 334.89 79.6571C327.047 79.6571 320.684 81.1631 316.981 84.1298C313.304 87.0693 311.444 90.662 311.444 94.7991C311.444 98.3827 312.751 101.368 315.338 103.672C317.916 106.022 324.832 108.48 335.879 110.975C347.035 113.498 354.805 115.738 358.98 117.635C365.08 120.447 369.655 124.067 372.569 128.395C375.491 132.731 376.971 137.785 376.971 143.428C376.971 149.071 375.346 154.36 372.151 159.305C368.947 164.249 364.29 168.141 358.309 170.881C352.345 173.612 345.537 175 338.085 175V174.964Z" fill="white"/>
<path d="M408.959 173.195H394.29V68.38H408.959V173.195Z" fill="white"/>
<path d="M468.931 173.195H428.837V68.38H468.295C476.265 68.38 482.755 69.4505 487.593 71.5735C492.449 73.7056 496.316 77.0352 499.076 81.4625C501.826 85.8899 503.224 90.5804 503.224 95.416C503.224 99.9251 501.98 104.225 499.539 108.199C497.26 111.901 493.865 114.976 489.427 117.353C495.272 119.259 499.865 122.37 503.097 126.607C506.519 131.107 508.262 136.496 508.262 142.62C508.262 147.538 507.209 152.165 505.13 156.392C503.051 160.62 500.437 163.932 497.369 166.227C494.31 168.522 490.425 170.273 485.823 171.444C481.248 172.605 475.566 173.195 468.94 173.195H468.931ZM443.497 160.021H468.931C473.324 160.021 476.447 159.858 478.208 159.531C481.312 158.978 483.926 158.044 485.996 156.755C488.047 155.485 489.754 153.598 491.088 151.148C492.413 148.699 493.094 145.823 493.094 142.611C493.094 138.846 492.123 135.535 490.198 132.768C488.283 130.009 485.578 128.041 482.165 126.916C478.707 125.782 473.633 125.201 467.097 125.201H443.515V160.021H443.497ZM443.497 112.037H465.527C471.554 112.037 475.929 111.638 478.516 110.848C481.902 109.841 484.48 108.154 486.186 105.84C487.893 103.518 488.755 100.56 488.755 97.04C488.755 93.5199 487.947 90.7074 486.341 88.1762C484.752 85.6631 482.446 83.9121 479.496 82.9776C476.474 82.025 471.2 81.5442 463.82 81.5442H443.497V112.037Z" fill="white"/>
<path d="M588.666 173.195H522.803V68.38H537.472V160.03H588.676V173.204L588.666 173.195Z" fill="white"/>
<path d="M680 173.195H601.51V68.38H677.586V81.5533H616.17V112.472H673.682V125.573H616.17V160.03H679.991V173.204L680 173.195Z" fill="white"/>
<path d="M382.072 46.4245C381.192 46.4245 380.348 46.107 379.549 45.3721C376.199 42.2784 380.538 37.5879 385.549 32.1626C390.369 26.9459 394.181 22.827 397.53 25.9207C399.083 27.3541 399.146 29.2775 397.739 31.7997C396.514 33.9952 394.299 36.4629 391.939 39.0123C388.562 42.6685 385.095 46.4155 382.063 46.4155L382.072 46.4245Z" fill="white"/>
<path d="M395.225 21.2393C392.102 21.2393 388.372 17.329 384.995 13.7907C380.556 9.13656 375.972 4.32813 379.431 1.02574C382.735 -2.12242 387.137 2.49549 392.238 7.83919C394.698 10.4158 396.831 12.6476 397.993 14.6254C399.337 16.9117 399.246 18.7262 397.721 20.1778C396.949 20.9127 396.114 21.2302 395.225 21.2302V21.2393Z" fill="white"/>
<path d="M420.45 46.4245C419.47 46.4245 418.389 46.0344 417.2 45.2542C415.167 43.9205 412.907 41.5526 410.574 39.0304C408.214 36.4811 405.999 34.0133 404.774 31.8178C403.367 29.2956 403.43 27.3723 404.983 25.9388C406.526 24.5054 408.35 24.5326 410.547 26.0114C412.453 27.2997 414.541 29.5587 416.964 32.1716C421.984 37.597 426.314 42.2784 422.964 45.3812C422.211 46.0798 421.376 46.4245 420.45 46.4245Z" fill="white"/>
<path d="M407.306 21.2393C406.371 21.2393 405.545 20.8854 404.81 20.1869C403.285 18.7353 403.195 16.9117 404.538 14.6345C405.7 12.6567 407.824 10.4248 410.293 7.84825C415.394 2.50455 419.806 -2.11335 423.101 1.0348C424.635 2.49548 424.707 4.37348 423.337 6.79584C422.138 8.90974 419.905 11.3139 417.536 13.7998C415.14 16.3129 412.807 18.6808 410.692 20.0417C409.43 20.8491 408.305 21.2574 407.306 21.2574V21.2393Z" fill="white"/>
</svg>
